<svg xmlns="http://www.w3.org/2000/svg" xmlns:xlink="http://www.w3.org/1999/xlink" width="500" zoomAndPan="magnify" viewBox="0 0 375 374.999991" height="500" preserveAspectRatio="xMidYMid meet" version="1.0"><defs><g/><clipPath id="da839f4aa3"><path d="M 37.5 37.5 L 337.5 37.5 L 337.5 337.5 L 37.5 337.5 Z M 37.5 37.5 " clip-rule="nonzero"/></clipPath><clipPath id="5a96e0e5ed"><path d="M 187.5 37.5 C 104.65625 37.5 37.5 104.65625 37.5 187.5 C 37.5 270.34375 104.65625 337.5 187.5 337.5 C 270.34375 337.5 337.5 270.34375 337.5 187.5 C 337.5 104.65625 270.34375 37.5 187.5 37.5 Z M 187.5 37.5 " clip-rule="nonzero"/></clipPath></defs><g clip-path="url(#da839f4aa3)"><g clip-path="url(#5a96e0e5ed)"><path fill="#ffffff" d="M 37.5 37.5 L 337.5 37.5 L 337.5 337.5 L 37.5 337.5 Z M 37.5 37.5 " fill-opacity="1" fill-rule="nonzero"/></g></g><g fill="#272727" fill-opacity="1"><g transform="translate(90.334861, 214.572746)"><g><path d="M 83.609375 0 L 79.078125 -15.15625 L 41.40625 -15.15625 L 36.875 0 L 1.5625 0 L 40.78125 -107.515625 L 80.953125 -107.515625 L 120.171875 0 Z M 48.59375 -39.21875 L 71.875 -39.21875 L 60.625 -77.5 L 60 -77.5 Z M 48.59375 -39.21875 "/></g></g></g><path stroke-linecap="butt" transform="matrix(0.494289, 0, 0, 0.494289, 110.237788, 102.57246)" fill="none" stroke-linejoin="miter" d="M 230.516764 104.7152 C 258.358207 104.7152 281.228811 110.349872 299.136477 121.619216 C 317.044144 132.888559 326.203449 149.587103 326.614393 171.714846 L 326.614393 175.492368 L 261.163689 175.492368 L 261.163689 174.259537 C 261.163689 167.929422 258.848179 162.658277 254.217158 158.4382 C 249.586138 154.218124 242.536871 152.108085 233.069358 152.108085 C 223.751997 152.108085 216.631605 153.498972 211.684474 156.272843 C 206.745246 158.999297 204.279583 162.373778 204.279583 166.388382 C 204.279583 172.046763 207.646161 176.266839 214.38722 179.04071 C 221.128279 181.775067 231.986679 184.604257 246.96242 187.536183 C 264.45124 191.139844 278.834273 194.893658 290.103616 198.805527 C 301.37296 202.662076 311.227709 209.0159 319.667862 217.866997 C 328.108016 226.718094 332.430829 238.730298 332.636301 253.911511 C 332.636301 279.642915 323.935356 298.728094 306.549272 311.182852 C 289.155285 323.582291 265.921154 329.77806 236.84688 329.77806 C 202.888696 329.77806 176.469751 324.095971 157.582141 312.723892 C 138.749851 301.351812 129.337657 281.231371 129.337657 252.370471 L 195.404777 252.370471 C 195.404777 263.331607 198.233967 270.657471 203.892347 274.363868 C 209.606047 278.014945 218.480853 279.848387 230.516764 279.848387 C 239.367862 279.848387 246.67792 278.892152 252.439036 276.987586 C 258.255471 275.083019 261.163689 271.202762 261.163689 265.331007 C 261.163689 260.036154 257.947264 256.068966 251.514412 253.445247 C 245.081561 250.821529 234.610397 248.016048 220.10092 245.036705 C 202.398725 241.282891 187.739095 237.339411 176.106224 233.229973 C 164.528672 229.112632 154.421035 222.316254 145.77541 212.848741 C 137.129784 203.333811 132.806972 190.468109 132.806972 174.259537 C 132.806972 150.432699 142.021596 132.888559 160.43504 121.619216 C 178.911706 110.349872 202.27228 104.7152 230.516764 104.7152 Z M 230.516764 104.7152 " stroke="#ffffff" stroke-width="45.050236" stroke-opacity="1" stroke-miterlimit="4"/><g fill="#272727" fill-opacity="1"><g transform="translate(167.451739, 263.710672)"><g><path d="M 56.71875 -109.390625 C 70.46875 -109.390625 81.769531 -106.601562 90.625 -101.03125 C 99.488281 -95.457031 104.023438 -87.195312 104.234375 -76.25 L 104.234375 -74.375 L 71.875 -74.375 L 71.875 -75 C 71.875 -78.132812 70.726562 -80.742188 68.4375 -82.828125 C 66.144531 -84.910156 62.65625 -85.953125 57.96875 -85.953125 C 53.382812 -85.953125 49.867188 -85.273438 47.421875 -83.921875 C 44.972656 -82.566406 43.75 -80.898438 43.75 -78.921875 C 43.75 -76.097656 45.414062 -74.007812 48.75 -72.65625 C 52.082031 -71.300781 57.445312 -69.894531 64.84375 -68.4375 C 73.5 -66.664062 80.613281 -64.816406 86.1875 -62.890625 C 91.757812 -60.960938 96.628906 -57.8125 100.796875 -53.4375 C 104.960938 -49.0625 107.097656 -43.125 107.203125 -35.625 C 107.203125 -22.914062 102.90625 -13.488281 94.3125 -7.34375 C 85.71875 -1.195312 74.226562 1.875 59.84375 1.875 C 43.070312 1.875 30.023438 -0.9375 20.703125 -6.5625 C 11.378906 -12.1875 6.71875 -22.132812 6.71875 -36.40625 L 39.375 -36.40625 C 39.375 -30.988281 40.78125 -27.367188 43.59375 -25.546875 C 46.40625 -23.722656 50.78125 -22.8125 56.71875 -22.8125 C 61.09375 -22.8125 64.710938 -23.28125 67.578125 -24.21875 C 70.441406 -25.15625 71.875 -27.082031 71.875 -30 C 71.875 -32.601562 70.285156 -34.554688 67.109375 -35.859375 C 63.929688 -37.160156 58.75 -38.539062 51.5625 -40 C 42.8125 -41.875 35.570312 -43.828125 29.84375 -45.859375 C 24.113281 -47.890625 19.113281 -51.25 14.84375 -55.9375 C 10.570312 -60.625 8.4375 -66.976562 8.4375 -75 C 8.4375 -86.78125 12.992188 -95.457031 22.109375 -101.03125 C 31.222656 -106.601562 42.757812 -109.390625 56.71875 -109.390625 Z M 56.71875 -109.390625 "/></g></g></g></svg>