<?xml version="1.0" encoding="UTF-8"?>
<svg xmlns="http://www.w3.org/2000/svg" id="Logos" viewBox="0 0 200 100" width="100"
  height="50">
  <defs>
    <style>
      .cls-1 {
        fill: #1d1d1b;
      }
    </style>
  </defs>
  <polygon class="cls-1" points="52.92 45.26 40.2 45.26 40.2 48.62 44.73 48.62 44.73 60.91 48.82 60.91 48.82 48.62 52.92 48.62 52.92 45.26"></polygon>
  <polygon class="cls-1" points="54.35 45.26 54.35 48.62 58.44 48.62 58.44 60.91 62.54 60.91 62.54 48.62 67.07 48.62 67.07 45.26 54.35 45.26"></polygon>
  <polygon class="cls-1" points="98.25 60.91 98.25 45.26 94.34 45.26 94.34 54.62 87.37 45.26 83.46 45.26 83.46 60.91 87.37 60.91 87.37 51.66 94.34 60.91 98.25 60.91"></polygon>
  <polygon class="cls-1" points="69.06 60.91 73.15 60.91 80.62 60.91 80.62 57.55 73.15 57.55 73.15 54.48 79.49 54.48 79.49 51.12 73.15 51.12 73.15 48.62 80.62 48.62 80.62 45.26 69.06 45.26 69.06 60.91"></polygon>
  <polygon class="cls-1" points="101.37 60.91 105.46 60.91 105.46 54.57 112.07 54.57 112.07 51.22 105.46 51.22 105.46 48.62 113.3 48.62 113.3 45.26 101.37 45.26 101.37 60.91"></polygon>
  <polygon class="cls-1" points="23.83 45.26 19.37 56.26 19.34 56.26 14.88 45.26 10.92 45.26 17.34 60.91 21.37 60.91 27.79 45.26 23.83 45.26"></polygon>
  <polygon class="cls-1" points="143.4 60.91 154.71 60.91 154.71 57.43 147.49 57.43 147.49 45.26 143.4 45.26 143.4 60.91"></polygon>
  <polygon class="cls-1" points="130.32 60.91 141.63 60.91 141.63 57.43 134.42 57.43 134.42 45.26 130.32 45.26 130.32 60.91"></polygon>
  <path class="cls-1" d="m125.03,60.91h3.96l-6.52-15.64h-4.01l-6.52,15.64h3.96l1.12-2.79h6.88l1.12,2.79Zm-6.72-5.98l2.14-5.34h.03l2.15,5.34h-4.32Z"></path>
  <path class="cls-1" d="m38.24,60.91h3.96l-6.52-15.64h-4.01l-6.52,15.64h3.96l1.12-2.79h6.88l1.12,2.79Zm-6.72-5.98l2.14-5.34h.03l2.15,5.34h-4.32Z"></path>
  <path class="cls-1" d="m189.94,52.67h0c0-7.57-6.14-13.71-13.71-13.71s-13.71,6.14-13.71,13.71,6.14,13.71,13.71,13.71c2.37,0,4.59-.6,6.53-1.65,4.27-2.32,7.17-6.85,7.17-12.05Zm-13.71-12.76c7.03,0,12.76,5.72,12.76,12.76h-25.52c0-7.03,5.72-12.76,12.76-12.76Z"></path>
</svg>
